HIERARCHY
ROOT joint_Root
{
	OFFSET 0.0 0.0 0.0
	CHANNELS 6 Xposition Yposition Zposition Zrotation Xrotation Yrotation 
	JOINT Hips
	{
		OFFSET 4.5925 91.4895 -427.239
		CHANNELS 6 Xposition Yposition Zposition Zrotation Xrotation Yrotation 
		JOINT Spine
		{
			OFFSET 15.7357 0.0 0.0
			CHANNELS 6 Xposition Yposition Zposition Zrotation Xrotation Yrotation 
			JOINT Chest
			{
				OFFSET 8.98455 -0.406207 0.0
				CHANNELS 6 Xposition Yposition Zposition Zrotation Xrotation Yrotation 
				JOINT Neck
				{
					OFFSET 16.3773 0.0 0.0
					CHANNELS 6 Xposition Yposition Zposition Zrotation Xrotation Yrotation 
					JOINT Head
					{
						OFFSET 6.45672 0.0 0.0
						CHANNELS 6 Xposition Yposition Zposition Zrotation Xrotation Yrotation 
						End Site
						{
							OFFSET 0.0 0.0 0.0
						}
					}
				}
				JOINT Shoulder_L
				{
					OFFSET 12.9942 -0.242716 4.98039
					CHANNELS 6 Xposition Yposition Zposition Zrotation Xrotation Yrotation 
					JOINT UpperArm_L
					{
						OFFSET 5.34809 0.0 0.0
						CHANNELS 6 Xposition Yposition Zposition Zrotation Xrotation Yrotation 
						JOINT LowerArm_L
						{
							OFFSET 24.3286 1.87007e-05 0.0
							CHANNELS 6 Xposition Yposition Zposition Zrotation Xrotation Yrotation 
							JOINT Hand_L
							{
								OFFSET 22.2916 0.0 0.0
								CHANNELS 6 Xposition Yposition Zposition Zrotation Xrotation Yrotation 
								End Site
								{
									OFFSET 0.0 0.0 0.0
								}
							}
						}
					}
				}
				JOINT Shoulder_R
				{
					OFFSET 12.9945 -0.242716 -4.98039
					CHANNELS 6 Xposition Yposition Zposition Zrotation Xrotation Yrotation 
					JOINT UpperArm_R
					{
						OFFSET -5.34813 0.0 0.0
						CHANNELS 6 Xposition Yposition Zposition Zrotation Xrotation Yrotation 
						JOINT LowerArm_R
						{
							OFFSET -24.3289 0.000322201 0.0
							CHANNELS 6 Xposition Yposition Zposition Zrotation Xrotation Yrotation 
							JOINT Hand_R
							{
								OFFSET -22.2915 -0.000108084 0.0
								CHANNELS 6 Xposition Yposition Zposition Zrotation Xrotation Yrotation 
								End Site
								{
									OFFSET 0.0 0.0 0.0
								}
							}
						}
					}
				}
			}
		}
		JOINT UpperLeg_L
		{
			OFFSET -2.19248 -6.46944 0.0
			CHANNELS 6 Xposition Yposition Zposition Zrotation Xrotation Yrotation 
			JOINT LowerLeg_L
			{
				OFFSET 39.0811 0.0 -1.23785e-05
				CHANNELS 6 Xposition Yposition Zposition Zrotation Xrotation Yrotation 
				JOINT Foot_L
				{
					OFFSET 40.9854 0.0 -1.26872e-05
					CHANNELS 6 Xposition Yposition Zposition Zrotation Xrotation Yrotation 
					JOINT Toes_L
					{
						OFFSET 11.7543 0.0 0.0
						CHANNELS 6 Xposition Yposition Zposition Zrotation Xrotation Yrotation 
						End Site
						{
							OFFSET 0.0 0.0 0.0
						}
					}
				}
			}
		}
		JOINT UpperLeg_R
		{
			OFFSET -2.19251 6.46944 0.0
			CHANNELS 6 Xposition Yposition Zposition Zrotation Xrotation Yrotation 
			JOINT LowerLeg_R
			{
				OFFSET -39.0811 -0.00228153 -0.0401928
				CHANNELS 6 Xposition Yposition Zposition Zrotation Xrotation Yrotation 
				JOINT Foot_R
				{
					OFFSET -40.9854 0.0 0.0
					CHANNELS 6 Xposition Yposition Zposition Zrotation Xrotation Yrotation 
					JOINT Toes_R
					{
						OFFSET -11.7543 0.0 0.0
						CHANNELS 6 Xposition Yposition Zposition Zrotation Xrotation Yrotation 
						End Site
						{
							OFFSET 0.0 0.0 0.0
						}
					}
				}
			}
		}
	}
}
MOTION
Frames:	6
Frame Time:	0.0333333
0.000000 0.000000 0.000000 0.000000 0.000000 -0.000000 0.446340 90.825700 -59.729500 89.276400 -3.115990 3.211110 15.735700 0.000005 -0.000001 79.380200 84.211300 -79.430200 8.984550 -0.406207 -0.000000 3.614300 -2.129090 -0.032876 16.377300 -0.000001 -0.000001 -1.899820 -4.569170 -0.923126 6.456720 -0.000001 -0.000000 -9.340030 -3.205600 -5.584940 12.994200 -0.242716 4.980390 -91.332800 4.867070 -74.666000 5.348090 -0.000007 -0.000001 -57.369000 32.660000 -26.351400 24.328600 0.000019 0.000005 9.144690 20.084000 -25.117600 22.291600 -0.000001 0.000005 11.579600 5.217470 2.277060 12.994500 -0.242716 -4.980390 88.659400 8.433390 -80.933900 -5.348130 -0.000001 -0.000004 -67.438100 27.234700 -4.571720 -24.328900 0.000322 -0.000009 0.558619 1.955110 -15.980200 -22.291500 -0.000108 -0.000004 12.800500 5.362280 -1.748780 -2.192480 -6.469440 -0.000000 -179.776000 -6.998920 -0.241311 39.081100 -0.000007 -0.000012 -0.052776 0.106608 26.337900 40.985400 -0.000006 -0.000013 4.604660 1.226540 -73.470800 11.754300 -0.000000 0.000003 -1.129750 -1.443170 -15.688100 -2.192510 6.469440 -0.000001 179.008000 14.657500 155.618000 -39.081100 -0.002282 -0.040193 0.088360 -0.053630 57.795100 -40.985400 0.000008 0.000006 3.593280 -3.147870 -56.660200 -11.754300 -0.000006 -0.000006 -0.019119 -0.162357 -23.204800
0.000000 0.000000 0.000000 0.000000 0.000000 -0.000000 0.272628 90.568200 -56.356700 89.510300 -1.145780 2.414890 15.735700 0.000005 -0.000001 75.230900 84.182900 -75.200100 8.984550 -0.406207 -0.000000 3.488580 -2.963400 0.151821 16.377300 -0.000001 -0.000001 -2.422940 -4.819300 -0.382310 6.456720 -0.000001 -0.000000 -9.787640 -3.263350 -4.390010 12.994200 -0.242716 4.980390 -91.124900 4.300530 -75.326800 5.348090 -0.000007 -0.000001 -54.300000 30.934000 -32.153200 24.328600 0.000019 0.000005 9.518820 16.927400 -29.940300 22.291600 -0.000001 0.000005 11.734200 5.236720 1.781550 12.994500 -0.242716 -4.980390 88.424400 9.282340 -80.322900 -5.348130 -0.000001 -0.000004 -68.840700 25.373900 0.566104 -24.328900 0.000322 -0.000009 0.781851 3.339390 -13.208300 -22.291500 -0.000108 -0.000004 12.763000 5.344320 -1.207820 -2.192480 -6.469440 -0.000000 -179.614000 -7.006400 2.143340 39.081100 -0.000007 -0.000012 0.016568 -0.036165 24.613900 40.985400 -0.000006 -0.000013 5.866620 2.673880 -74.645000 11.754300 -0.000000 0.000003 -1.290570 -1.647380 -16.027200 -2.192510 6.469440 -0.000001 -179.873000 15.000100 153.806000 -39.081100 -0.002282 -0.040193 0.051339 -0.044895 46.961900 -40.985400 0.000008 0.000006 3.421450 -2.310070 -58.461300 -11.754300 -0.000006 -0.000006 -0.021189 -0.173787 -23.675700
0.000000 0.000000 0.000000 0.000000 0.000000 -0.000000 0.028945 90.014400 -52.869600 89.838900 0.534130 1.791210 15.735700 0.000005 -0.000001 71.524700 83.997700 -71.432000 8.984550 -0.406207 -0.000000 3.629690 -3.802680 0.305842 16.377300 -0.000001 -0.000001 -3.082780 -5.012830 0.192545 6.456720 -0.000001 -0.000000 -10.634000 -2.985510 -3.329460 12.994200 -0.242716 4.980390 -90.936000 3.742600 -75.948700 5.348090 -0.000007 -0.000001 -51.717000 28.640200 -36.854500 24.328600 0.000019 0.000005 9.734520 14.216900 -34.937700 22.291600 -0.000001 0.000005 12.933200 5.253040 1.353610 12.994500 -0.242716 -4.980390 88.215500 9.879570 -79.708000 -5.348130 -0.000001 -0.000004 -69.919800 23.377200 4.531070 -24.328900 0.000322 -0.000009 0.902572 5.050220 -10.163500 -22.291500 -0.000108 -0.000004 12.893100 5.330600 -0.802992 -2.192480 -6.469440 -0.000000 -179.130000 -6.923070 3.990030 39.081100 -0.000007 -0.000012 0.006045 -0.013314 24.420000 40.985400 -0.000006 -0.000013 5.701390 4.498710 -75.762000 11.754300 -0.000000 0.000003 -1.675700 -2.118520 -16.973200 -2.192510 6.469440 -0.000001 -179.376000 14.523700 152.914000 -39.081100 -0.002282 -0.040193 0.026853 -0.033851 34.839700 -40.985400 0.000008 0.000006 2.488340 -0.770097 -57.579400 -11.754300 -0.000006 -0.000006 -0.019903 -0.166751 -23.385700
0.000000 0.000000 0.000000 0.000000 0.000000 -0.000000 -0.311520 89.260700 -49.241800 89.696000 1.923520 0.932525 15.735700 0.000005 -0.000001 67.403400 83.862400 -67.049500 8.984550 -0.406207 -0.000000 3.591880 -4.723600 0.855506 16.377300 -0.000001 -0.000001 -3.512210 -5.043530 0.691252 6.456720 -0.000001 -0.000000 -11.757400 -2.609790 -2.317600 12.994200 -0.242716 4.980390 -90.823100 3.369240 -76.262800 5.348090 -0.000007 -0.000001 -49.667900 26.145400 -40.200700 24.328600 0.000019 0.000005 10.243300 12.512600 -39.831700 22.291600 -0.000001 0.000005 14.724800 5.265840 1.011850 12.994500 -0.242716 -4.980390 88.072000 10.196500 -79.233600 -5.348130 -0.000001 -0.000004 -70.743600 21.240100 7.568550 -24.328900 0.000322 -0.000009 0.912037 7.352400 -7.102800 -22.291500 -0.000108 -0.000004 12.917700 5.305320 -0.076941 -2.192480 -6.469440 -0.000000 -177.862000 -7.245790 5.316650 39.081100 -0.000007 -0.000012 -0.011044 0.023682 25.002000 40.985400 -0.000006 -0.000013 5.401450 6.649580 -77.067300 11.754300 -0.000000 0.000003 -1.423610 -1.759610 -18.733600 -2.192510 6.469440 -0.000001 -178.601000 13.716800 151.418000 -39.081100 -0.002282 -0.040193 0.009282 -0.012913 24.812600 -40.985400 0.000008 0.000006 1.675750 3.190240 -55.745800 -11.754300 -0.000006 -0.000006 -0.018620 -0.159523 -23.088100
0.000000 0.000000 0.000000 0.000000 0.000000 -0.000000 -0.752210 88.343500 -45.182200 89.368200 3.340370 -0.021458 15.735700 0.000005 -0.000001 62.550900 83.812400 -61.776600 8.984550 -0.406207 -0.000000 3.269380 -5.728580 1.711410 16.377300 -0.000001 -0.000001 -3.850650 -5.136940 0.965490 6.456720 -0.000001 -0.000000 -12.480400 -2.253200 -1.540530 12.994200 -0.242716 4.980390 -90.762400 3.189520 -76.549700 5.348090 -0.000007 -0.000001 -48.388700 23.958000 -41.965100 24.328600 0.000019 0.000005 10.892900 11.351000 -44.356500 22.291600 -0.000001 0.000005 16.764200 5.268810 0.930692 12.994500 -0.242716 -4.980390 87.962800 10.195100 -78.637000 -5.348130 -0.000001 -0.000004 -71.127900 18.952400 10.000700 -24.328900 0.000322 -0.000009 0.753830 9.426200 -4.602150 -22.291500 -0.000108 -0.000004 12.519200 5.257380 1.237440 -2.192480 -6.469440 -0.000000 -176.458000 -6.674150 6.327400 39.081100 -0.000007 -0.000012 -0.026680 0.054055 26.270100 40.985400 -0.000006 -0.000013 5.006850 8.090320 -77.626300 11.754300 -0.000000 0.000003 -1.185300 -1.436870 -21.879000 -2.192510 6.469440 -0.000001 -175.708000 16.500300 148.195000 -39.081100 -0.002282 -0.040193 -0.005247 0.021954 21.314200 -40.985400 0.000008 0.000006 0.512433 8.314400 -56.912000 -11.754300 -0.000006 -0.000006 -0.018941 -0.161352 -23.163400
0.000000 0.000000 0.000000 0.000000 0.000000 -0.000000 -1.411890 87.394500 -40.672000 89.003600 4.437540 -0.992949 15.735700 0.000005 -0.000001 57.582800 83.853800 -56.350800 8.984550 -0.406207 -0.000000 2.699840 -6.638410 2.620290 16.377300 -0.000001 -0.000001 -4.031340 -5.153430 1.229320 6.456720 -0.000001 -0.000000 -12.889700 -1.902870 -0.952666 12.994200 -0.242716 4.980390 -90.724100 3.053100 -76.651000 5.348090 -0.000007 -0.000001 -48.318400 22.182900 -42.129800 24.328600 0.000019 0.000005 11.605600 10.628900 -48.072900 22.291600 -0.000001 0.000005 18.436900 5.277130 0.705890 12.994500 -0.242716 -4.980390 87.835200 10.325900 -78.091600 -5.348130 -0.000001 -0.000004 -70.876400 16.989400 11.991300 -24.328900 0.000322 -0.000009 0.531635 10.404000 -2.947130 -22.291500 -0.000108 -0.000004 11.460100 5.214470 2.355590 -2.192480 -6.469440 -0.000000 -175.136000 -5.220930 6.867890 39.081100 -0.000007 -0.000012 -0.033169 0.060361 28.789700 40.985400 -0.000006 -0.000013 4.253230 8.638610 -77.821100 11.754300 -0.000000 0.000003 -0.016402 -0.146486 -22.555800 -2.192510 6.469440 -0.000001 -173.245000 16.932100 144.685000 -39.081100 -0.002282 -0.040193 0.041362 -0.088615 23.236000 -40.985400 0.000008 0.000006 4.202300 7.041520 -58.106000 -11.754300 -0.000006 -0.000006 -0.020538 -0.170250 -23.529900
